<svg width="120" height="30" viewBox="0 0 120 30" fill="none" xmlns="http://www.w3.org/2000/svg">
<path d="M101.087 30H101.712V27.1069H101.722L102.762 30H103.302L104.342 27.1069H104.353V30H104.978V26.2512H104.064L103.056 29.1863H103.045L102.011 26.2512H101.087V30ZM97.6275 26.8181H98.8138V30H99.47V26.8181H100.662V26.2512H97.6275V26.8181ZM90 30L120 0H101.944L71.9444 30H90ZM85.6987 13.065H49.3819C38.3137 13.065 36.3769 13.6519 31.6362 18.3925C27.2025 22.8263 20.0006 30 20.0006 30H35.7325L39.4856 26.2469C41.9531 23.7794 43.2256 23.5238 48.4069 23.5238H75.2406L85.6987 13.065ZM31.1519 16.2531C27.8775 19.3425 20.7531 26.2631 16.9131 30H0C0 30 13.5525 16.4869 21.085 9.0725C28.8456 1.685 32.7144 0 46.9487 0H98.7644L87.545 11.2188H48.0012C37.9994 11.2188 35.7519 11.9119 31.1519 16.2531Z" fill="white"/>
</svg>
