<svg width="20" height="24" viewBox="0 0 20 24" fill="none" xmlns="http://www.w3.org/2000/svg">
<path d="M7.40508 0.762313C2.14829 3.66261 4.38393 12.001 10.3658 12.001C13.4474 12.001 16.4081 9.04025 16.4081 6.01911C16.4081 1.48739 11.393 -1.47334 7.40508 0.762313ZM13.2057 3.05838C14.9579 4.6898 14.9579 6.98587 13.2661 8.79856C11.6347 10.5508 9.33861 10.5508 7.52593 8.85898C5.77366 7.22757 5.77366 4.93149 7.4655 3.11881C9.09692 1.36654 11.393 1.36654 13.2057 3.05838Z" fill="white"/>
<path d="M1.42265 15.1429C-0.752577 17.3182 1.90603 22.152 6.01479 23.3605C13.9906 25.7774 22.2686 20.9435 19.4287 15.5659C18.8245 14.5387 18.0994 14.4179 10.4861 14.4179C4.80633 14.4179 1.90603 14.6596 1.42265 15.1429ZM18.0994 17.862C17.7973 20.581 15.1387 21.9707 10.3652 21.9707C5.59183 21.9707 2.93322 20.581 2.63111 17.862L2.44984 16.2305H10.3652H18.2806L18.0994 17.862Z" fill="white"/>
</svg>
